<svg xmlns="http://www.w3.org/2000/svg" width="850" height="280" viewBox="0 0 850 280">
  <defs>
    <style>
      .star-bg {
        animation: twinkle-slow 7s ease-in-out infinite;
      }
      .star-mid {
        animation: twinkle-mid 5s ease-in-out infinite;
      }
      .star-fg {
        animation: twinkle-fast 3s ease-in-out infinite;
      }
      @keyframes twinkle-slow {
        0%, 100% { opacity: 0.08; }
        50% { opacity: 0.3; }
      }
      @keyframes twinkle-mid {
        0%, 100% { opacity: 0.15; }
        50% { opacity: 0.5; }
      }
      @keyframes twinkle-fast {
        0%, 100% { opacity: 0.4; }
        50% { opacity: 0.8; }
      }
      .core-ring {
        animation: pulse-core 3s ease-in-out infinite;
      }
      .core-ring-inner {
        animation: pulse-core 3s ease-in-out infinite 1.5s;
      }
      @keyframes pulse-core {
        0%, 100% { stroke-opacity: 0.3; transform: scale(1); transform-origin: 425px 155px; }
        50% { stroke-opacity: 0.8; transform: scale(1.06); transform-origin: 425px 155px; }
      }
      .shooting-star {
        opacity: 0;
        animation: shoot linear infinite;
      }
      @keyframes shoot {
        0% { opacity: 0; transform: translate(0, 0); }
        5% { opacity: 0.9; }
        15% { opacity: 0.6; transform: translate(var(--shoot-tx), var(--shoot-ty)); }
        20% { opacity: 0; transform: translate(var(--shoot-tx), var(--shoot-ty)); }
        100% { opacity: 0; }
      }
    </style>

    <filter id="nebula-outer">
      <feGaussianBlur stdDeviation="60"/>
    </filter>
    <filter id="nebula-inner">
      <feGaussianBlur stdDeviation="30"/>
    </filter>

    <filter id="label-glow" x="-20%" y="-20%" width="140%" height="140%">
      <feGaussianBlur stdDeviation="2" result="blur"/>
    </filter>
    <filter id="core-bright-glow" x="-100%" y="-100%" width="300%" height="300%">
      <feGaussianBlur stdDeviation="4"/>
    </filter>

    <radialGradient id="core-haze-gradient" cx="50%" cy="50%" r="50%">
      <stop offset="0%" stop-color="#00d4ff" stop-opacity="0.5"/>
      <stop offset="50%" stop-color="#a78bfa" stop-opacity="0.2"/>
      <stop offset="100%" stop-color="#00d4ff" stop-opacity="0"/>
    </radialGradient>

    <radialGradient id="core-inner-gradient" cx="50%" cy="50%" r="50%">
      <stop offset="0%" stop-color="#ffffff" stop-opacity="0.6"/>
      <stop offset="40%" stop-color="#00d4ff" stop-opacity="0.3"/>
      <stop offset="100%" stop-color="#00d4ff" stop-opacity="0"/>
    </radialGradient>

    <linearGradient id="shoot-grad" x1="0%" y1="0%" x2="100%" y2="0%">
      <stop offset="0%" stop-color="#ffffff" stop-opacity="0.8"/>
      <stop offset="100%" stop-color="#ffffff" stop-opacity="0"/>
    </linearGradient>

    <filter id="star-glow-0" x="-100%" y="-100%" width="300%" height="300%">
      <feGaussianBlur stdDeviation="3" result="blur"/>
      <feFlood flood-color="#00d4ff" flood-opacity="0.5" result="color"/>
      <feComposite in="color" in2="blur" operator="in" result="glow"/>
      <feMerge>
        <feMergeNode in="glow"/>
        <feMergeNode in="SourceGraphic"/>
      </feMerge>
    </filter>
    <filter id="star-glow-1" x="-100%" y="-100%" width="300%" height="300%">
      <feGaussianBlur stdDeviation="3" result="blur"/>
      <feFlood flood-color="#a78bfa" flood-opacity="0.5" result="color"/>
      <feComposite in="color" in2="blur" operator="in" result="glow"/>
      <feMerge>
        <feMergeNode in="glow"/>
        <feMergeNode in="SourceGraphic"/>
      </feMerge>
    </filter>
    <filter id="star-glow-2" x="-100%" y="-100%" width="300%" height="300%">
      <feGaussianBlur stdDeviation="3" result="blur"/>
      <feFlood flood-color="#ffb020" flood-opacity="0.5" result="color"/>
      <feComposite in="color" in2="blur" operator="in" result="glow"/>
      <feMerge>
        <feMergeNode in="glow"/>
        <feMergeNode in="SourceGraphic"/>
      </feMerge>
    </filter>
  </defs>

  <!-- 1. Background -->
  <rect x="0" y="0" width="850" height="280" rx="12" ry="12" fill="#080c14"/>

  <!-- 2. Outer nebula -->
    <circle cx="245" cy="125" r="120" fill="#a78bfa" opacity="0.015" filter="url(#nebula-outer)"/>
    <circle cx="625" cy="175" r="100" fill="#ffb020" opacity="0.012" filter="url(#nebula-outer)"/>
    <circle cx="425" cy="195" r="140" fill="#00d4ff" opacity="0.01" filter="url(#nebula-outer)"/>

  <!-- 3. Star field (3 layers) -->
    <circle cx="289.0" cy="21.9" r="0.44" fill="#00d4ff" opacity="0.19" class="star-bg" style="animation-delay: 2.5s"/>
    <circle cx="701.9" cy="77.5" r="0.30" fill="#ffffff" opacity="0.17" class="star-bg" style="animation-delay: 2.3s"/>
    <circle cx="495.0" cy="223.8" r="0.68" fill="#ffffff" opacity="0.18" class="star-bg" style="animation-delay: 2.2s"/>
    <circle cx="186.1" cy="64.9" r="0.61" fill="#ffffff" opacity="0.11" class="star-bg" style="animation-delay: 1.5s"/>
    <circle cx="757.2" cy="94.5" r="0.47" fill="#a78bfa" opacity="0.16" class="star-bg" style="animation-delay: 2.2s"/>
    <circle cx="365.8" cy="268.0" r="0.54" fill="#ffffff" opacity="0.24" class="star-bg" style="animation-delay: 2.1s"/>
    <circle cx="122.5" cy="239.9" r="0.31" fill="#ffffff" opacity="0.19" class="star-bg" style="animation-delay: 2.6s"/>
    <circle cx="820.6" cy="217.2" r="0.39" fill="#ffffff" opacity="0.17" class="star-bg" style="animation-delay: 1.6s"/>
    <circle cx="93.0" cy="247.4" r="0.57" fill="#ffb020" opacity="0.19" class="star-bg" style="animation-delay: 1.9s"/>
    <circle cx="151.3" cy="37.2" r="0.60" fill="#ffffff" opacity="0.14" class="star-bg" style="animation-delay: 2.6s"/>
    <circle cx="649.1" cy="64.7" r="0.64" fill="#ffffff" opacity="0.30" class="star-bg" style="animation-delay: 1.8s"/>
    <circle cx="753.9" cy="186.8" r="0.56" fill="#ffffff" opacity="0.17" class="star-bg" style="animation-delay: 1.6s"/>
    <circle cx="103.2" cy="257.5" r="0.44" fill="#00d4ff" opacity="0.25" class="star-bg" style="animation-delay: 1.6s"/>
    <circle cx="517.6" cy="97.9" r="0.74" fill="#ffffff" opacity="0.22" class="star-bg" style="animation-delay: 2.7s"/>
    <circle cx="206.6" cy="208.6" r="0.76" fill="#ffffff" opacity="0.17" class="star-bg" style="animation-delay: 2.1s"/>
    <circle cx="465.2" cy="148.5" r="0.65" fill="#ffffff" opacity="0.24" class="star-bg" style="animation-delay: 2.0s"/>
    <circle cx="183.4" cy="56.0" r="0.44" fill="#a78bfa" opacity="0.26" class="star-bg" style="animation-delay: 2.0s"/>
    <circle cx="638.3" cy="79.7" r="0.77" fill="#ffffff" opacity="0.11" class="star-bg" style="animation-delay: 2.3s"/>
    <circle cx="245.2" cy="164.9" r="0.42" fill="#ffffff" opacity="0.24" class="star-bg" style="animation-delay: 2.4s"/>
    <circle cx="31.5" cy="183.2" r="0.31" fill="#ffffff" opacity="0.13" class="star-bg" style="animation-delay: 2.5s"/>
    <circle cx="308.1" cy="168.3" r="0.34" fill="#ffb020" opacity="0.17" class="star-bg" style="animation-delay: 2.0s"/>
    <circle cx="44.5" cy="182.1" r="0.47" fill="#ffffff" opacity="0.10" class="star-bg" style="animation-delay: 1.8s"/>
    <circle cx="197.5" cy="84.9" r="0.36" fill="#ffffff" opacity="0.23" class="star-bg" style="animation-delay: 2.2s"/>
    <circle cx="189.7" cy="171.0" r="0.43" fill="#ffffff" opacity="0.13" class="star-bg" style="animation-delay: 2.5s"/>
    <circle cx="308.3" cy="71.9" r="0.74" fill="#00d4ff" opacity="0.23" class="star-bg" style="animation-delay: 1.8s"/>
    <circle cx="763.6" cy="176.3" r="0.67" fill="#ffffff" opacity="0.18" class="star-bg" style="animation-delay: 1.7s"/>
    <circle cx="237.3" cy="78.1" r="0.43" fill="#ffffff" opacity="0.15" class="star-bg" style="animation-delay: 1.7s"/>
    <circle cx="322.8" cy="18.3" r="0.38" fill="#ffffff" opacity="0.20" class="star-bg" style="animation-delay: 2.4s"/>
    <circle cx="737.7" cy="146.2" r="0.35" fill="#a78bfa" opacity="0.15" class="star-bg" style="animation-delay: 1.9s"/>
    <circle cx="273.3" cy="96.4" r="0.60" fill="#ffffff" opacity="0.15" class="star-bg" style="animation-delay: 1.9s"/>
    <circle cx="326.7" cy="263.0" r="0.60" fill="#ffffff" opacity="0.26" class="star-bg" style="animation-delay: 1.6s"/>
    <circle cx="382.7" cy="186.8" r="0.61" fill="#ffffff" opacity="0.14" class="star-bg" style="animation-delay: 1.9s"/>
    <circle cx="786.1" cy="161.6" r="0.59" fill="#ffb020" opacity="0.20" class="star-bg" style="animation-delay: 2.1s"/>
    <circle cx="95.7" cy="106.0" r="0.76" fill="#ffffff" opacity="0.17" class="star-bg" style="animation-delay: 2.3s"/>
    <circle cx="832.5" cy="239.8" r="0.34" fill="#ffffff" opacity="0.09" class="star-bg" style="animation-delay: 1.7s"/>
    <circle cx="351.5" cy="208.2" r="0.79" fill="#ffffff" opacity="0.19" class="star-bg" style="animation-delay: 2.1s"/>
    <circle cx="538.2" cy="243.8" r="0.61" fill="#00d4ff" opacity="0.18" class="star-bg" style="animation-delay: 1.8s"/>
    <circle cx="78.3" cy="230.9" r="0.78" fill="#ffffff" opacity="0.12" class="star-bg" style="animation-delay: 1.6s"/>
    <circle cx="821.3" cy="144.4" r="0.37" fill="#ffffff" opacity="0.18" class="star-bg" style="animation-delay: 2.3s"/>
    <circle cx="281.5" cy="124.3" r="0.44" fill="#ffffff" opacity="0.17" class="star-bg" style="animation-delay: 2.1s"/>
    <circle cx="247.8" cy="144.5" r="0.85" fill="#00d4ff" opacity="0.41" class="star-mid" style="animation-delay: 2.0s"/>
    <circle cx="431.7" cy="235.7" r="1.01" fill="#ffffff" opacity="0.41" class="star-mid" style="animation-delay: 2.0s"/>
    <circle cx="264.2" cy="99.3" r="1.08" fill="#ffffff" opacity="0.38" class="star-mid" style="animation-delay: 1.4s"/>
    <circle cx="835.1" cy="112.6" r="0.77" fill="#ffffff" opacity="0.36" class="star-mid" style="animation-delay: 1.7s"/>
    <circle cx="306.5" cy="42.2" r="0.63" fill="#a78bfa" opacity="0.32" class="star-mid" style="animation-delay: 1.2s"/>
    <circle cx="494.2" cy="97.6" r="0.99" fill="#ffffff" opacity="0.34" class="star-mid" style="animation-delay: 2.1s"/>
    <circle cx="120.4" cy="223.8" r="0.71" fill="#ffffff" opacity="0.37" class="star-mid" style="animation-delay: 1.5s"/>
    <circle cx="438.3" cy="102.9" r="1.06" fill="#ffffff" opacity="0.25" class="star-mid" style="animation-delay: 1.9s"/>
    <circle cx="815.2" cy="83.3" r="0.84" fill="#ffb020" opacity="0.19" class="star-mid" style="animation-delay: 1.2s"/>
    <circle cx="822.1" cy="107.9" r="1.10" fill="#ffffff" opacity="0.50" class="star-mid" style="animation-delay: 1.1s"/>
    <circle cx="705.3" cy="136.2" r="0.70" fill="#ffffff" opacity="0.32" class="star-mid" style="animation-delay: 1.2s"/>
    <circle cx="613.8" cy="90.5" r="0.66" fill="#ffffff" opacity="0.39" class="star-mid" style="animation-delay: 1.4s"/>
    <circle cx="491.5" cy="243.8" r="0.71" fill="#00d4ff" opacity="0.49" class="star-mid" style="animation-delay: 1.8s"/>
    <circle cx="388.9" cy="45.7" r="0.83" fill="#ffffff" opacity="0.41" class="star-mid" style="animation-delay: 2.1s"/>
    <circle cx="339.4" cy="230.7" r="0.95" fill="#ffffff" opacity="0.49" class="star-mid" style="animation-delay: 1.1s"/>
    <circle cx="562.5" cy="63.4" r="0.84" fill="#ffffff" opacity="0.30" class="star-mid" style="animation-delay: 2.0s"/>
    <circle cx="166.3" cy="99.4" r="1.17" fill="#a78bfa" opacity="0.47" class="star-mid" style="animation-delay: 1.1s"/>
    <circle cx="365.9" cy="142.2" r="0.60" fill="#ffffff" opacity="0.40" class="star-mid" style="animation-delay: 1.7s"/>
    <circle cx="272.0" cy="70.9" r="1.04" fill="#ffffff" opacity="0.33" class="star-mid" style="animation-delay: 1.2s"/>
    <circle cx="534.8" cy="213.7" r="0.76" fill="#ffffff" opacity="0.30" class="star-mid" style="animation-delay: 1.9s"/>
    <circle cx="515.1" cy="188.6" r="1.21" fill="#00d4ff" opacity="0.62" class="star-fg" style="animation-delay: 0.7s"/>
    <circle cx="68.3" cy="260.3" r="1.07" fill="#ffffff" opacity="0.58" class="star-fg" style="animation-delay: 1.1s"/>
    <circle cx="694.4" cy="186.3" r="1.01" fill="#ffffff" opacity="0.51" class="star-fg" style="animation-delay: 1.3s"/>
    <circle cx="448.3" cy="244.4" r="1.51" fill="#ffffff" opacity="0.54" class="star-fg" style="animation-delay: 0.6s"/>
    <circle cx="192.0" cy="96.9" r="1.06" fill="#a78bfa" opacity="0.66" class="star-fg" style="animation-delay: 1.3s"/>
    <circle cx="111.9" cy="221.8" r="1.42" fill="#ffffff" opacity="0.56" class="star-fg" style="animation-delay: 0.8s"/>
    <circle cx="498.5" cy="195.2" r="1.12" fill="#ffffff" opacity="0.44" class="star-fg" style="animation-delay: 1.3s"/>
    <circle cx="614.3" cy="62.6" r="1.15" fill="#ffffff" opacity="0.54" class="star-fg" style="animation-delay: 1.0s"/>
    <circle cx="464.3" cy="17.2" r="1.07" fill="#ffb020" opacity="0.49" class="star-fg" style="animation-delay: 1.3s"/>
    <circle cx="546.5" cy="252.1" r="1.32" fill="#ffffff" opacity="0.56" class="star-fg" style="animation-delay: 1.2s"/>

  <!-- 4. Inner nebula -->
    <circle cx="425" cy="155" r="70" fill="#00d4ff" opacity="0.04" filter="url(#nebula-inner)"/>
    <circle cx="365" cy="135" r="50" fill="#a78bfa" opacity="0.035" filter="url(#nebula-inner)"/>
    <circle cx="495" cy="170" r="45" fill="#ffb020" opacity="0.03" filter="url(#nebula-inner)"/>

  <!-- 5. Shooting stars -->
    <line x1="120" y1="30" x2="140" y2="35" stroke="url(#shoot-grad)" stroke-width="1.2" stroke-linecap="round" class="shooting-star" style="animation-delay: 0.0s; --shoot-tx: 200px; --shoot-ty: 80px; animation-duration: 6s"/>
    <line x1="650" y1="20" x2="670" y2="25" stroke="url(#shoot-grad)" stroke-width="1.2" stroke-linecap="round" class="shooting-star" style="animation-delay: 2.5s; --shoot-tx: 180px; --shoot-ty: 70px; animation-duration: 8s"/>
    <line x1="400" y1="250" x2="420" y2="255" stroke="url(#shoot-grad)" stroke-width="1.2" stroke-linecap="round" class="shooting-star" style="animation-delay: 5.0s; --shoot-tx: 160px; --shoot-ty: 60px; animation-duration: 7s"/>

  <!-- 6. Spiral arm paths (segmented fade) -->
    <path d="M 425.0 155.0 Q 425.0 155.0 429.6 155.8 Q 434.3 156.7 437.5 157.9 Q 440.8 159.2 442.3 160.7 Q 443.8 162.2 443.2 163.9 Q 442.6 165.6 439.8 167.4 Q 437.1 169.1 432.0 170.7 Q 427.0 172.3 419.9 173.6 L 412.7 174.9" fill="none" stroke="#00d4ff" stroke-width="2.0" opacity="0.50" stroke-linecap="round">
      <animate attributeName="opacity" values="0.40;0.60;0.40" dur="8s" begin="0s" repeatCount="indefinite"/>
    </path>
    <path d="M 412.7 174.9 Q 412.7 174.9 403.7 175.8 Q 394.7 176.8 384.3 177.1 Q 373.8 177.5 362.5 177.2 Q 351.1 176.9 339.3 175.9 Q 327.6 174.9 316.2 173.2 Q 304.9 171.4 294.5 169.0 Q 284.2 166.5 275.6 163.3 L 267.0 160.1" fill="none" stroke="#00d4ff" stroke-width="1.7" opacity="0.40" stroke-linecap="round">
      <animate attributeName="opacity" values="0.30;0.50;0.30" dur="8s" begin="0s" repeatCount="indefinite"/>
    </path>
    <path d="M 267.0 160.1 Q 267.0 160.1 260.8 156.3 Q 254.6 152.5 251.4 148.3 Q 248.2 144.0 248.5 139.4 Q 248.8 134.8 252.9 130.0 Q 257.1 125.3 265.2 120.6 Q 273.4 115.9 285.6 111.6 Q 297.8 107.2 313.9 103.3 L 330.0 99.4" fill="none" stroke="#00d4ff" stroke-width="1.4" opacity="0.30" stroke-linecap="round">
      <animate attributeName="opacity" values="0.20;0.40;0.20" dur="8s" begin="0s" repeatCount="indefinite"/>
    </path>
    <path d="M 330.0 99.4 Q 330.0 99.4 349.7 96.3 Q 369.3 93.2 391.9 91.0 Q 414.4 88.8 439.3 87.6 Q 464.1 86.5 490.4 86.7 Q 516.6 86.8 543.3 88.2 Q 570.0 89.7 596.0 92.5 Q 622.1 95.3 646.4 99.4 L 670.7 103.6" fill="none" stroke="#00d4ff" stroke-width="1.1" opacity="0.20" stroke-linecap="round">
      <animate attributeName="opacity" values="0.10;0.30;0.10" dur="8s" begin="0s" repeatCount="indefinite"/>
    </path>
    <path d="M 425.0 155.0 Q 425.0 155.0 419.6 155.5 Q 414.3 156.0 408.4 155.9 Q 402.5 155.9 396.7 155.3 Q 390.9 154.8 385.7 153.7 Q 380.5 152.6 376.5 151.0 Q 372.5 149.4 370.2 147.5 Q 367.9 145.5 367.8 143.3 L 367.6 141.0" fill="none" stroke="#a78bfa" stroke-width="2.0" opacity="0.50" stroke-linecap="round">
      <animate attributeName="opacity" values="0.40;0.60;0.40" dur="8s" begin="1s" repeatCount="indefinite"/>
    </path>
    <path d="M 367.6 141.0 Q 367.6 141.0 369.8 138.6 Q 372.0 136.2 376.8 133.9 Q 381.7 131.5 389.1 129.3 Q 396.5 127.1 406.5 125.2 Q 416.4 123.4 428.6 122.0 Q 440.7 120.6 454.7 119.9 Q 468.7 119.2 483.9 119.2 L 499.1 119.3" fill="none" stroke="#a78bfa" stroke-width="1.7" opacity="0.40" stroke-linecap="round">
      <animate attributeName="opacity" values="0.30;0.50;0.30" dur="8s" begin="1s" repeatCount="indefinite"/>
    </path>
    <path d="M 499.1 119.3 Q 499.1 119.3 514.9 120.2 Q 530.7 121.1 546.4 122.8 Q 562.0 124.6 576.8 127.3 Q 591.5 130.0 604.4 133.6 Q 617.4 137.2 627.8 141.6 Q 638.2 145.9 645.4 151.0 Q 652.5 156.0 655.8 161.6 L 659.1 167.2" fill="none" stroke="#a78bfa" stroke-width="1.4" opacity="0.30" stroke-linecap="round">
      <animate attributeName="opacity" values="0.20;0.40;0.20" dur="8s" begin="1s" repeatCount="indefinite"/>
    </path>
    <path d="M 659.1 167.2 Q 659.1 167.2 658.0 173.0 Q 656.9 178.9 651.1 184.9 Q 645.3 190.8 634.6 196.6 Q 623.9 202.4 608.5 207.8 Q 593.0 213.2 573.1 217.9 Q 553.1 222.6 529.1 226.4 Q 505.1 230.1 477.7 232.8 L 450.3 235.5" fill="none" stroke="#a78bfa" stroke-width="1.1" opacity="0.20" stroke-linecap="round">
      <animate attributeName="opacity" values="0.10;0.30;0.10" dur="8s" begin="1s" repeatCount="indefinite"/>
    </path>
    <path d="M 425.0 155.0 Q 425.0 155.0 425.6 153.6 Q 426.1 152.1 428.7 150.8 Q 431.3 149.5 435.8 148.4 Q 440.3 147.3 446.4 146.5 Q 452.5 145.8 459.8 145.6 Q 467.1 145.3 475.1 145.6 Q 483.1 145.9 491.2 146.8 L 499.3 147.7" fill="none" stroke="#ffb020" stroke-width="2.0" opacity="0.50" stroke-linecap="round">
      <animate attributeName="opacity" values="0.40;0.60;0.40" dur="8s" begin="2s" repeatCount="indefinite"/>
    </path>
    <path d="M 499.3 147.7 Q 499.3 147.7 506.9 149.2 Q 514.5 150.8 520.9 152.9 Q 527.4 155.0 532.1 157.6 Q 536.9 160.3 539.3 163.3 Q 541.8 166.4 541.5 169.8 Q 541.3 173.1 538.0 176.6 Q 534.6 180.2 528.1 183.6 L 521.5 187.1" fill="none" stroke="#ffb020" stroke-width="1.7" opacity="0.40" stroke-linecap="round">
      <animate attributeName="opacity" values="0.30;0.50;0.30" dur="8s" begin="2s" repeatCount="indefinite"/>
    </path>
    <path d="M 521.5 187.1 Q 521.5 187.1 511.6 190.4 Q 501.8 193.6 488.7 196.5 Q 475.7 199.3 459.8 201.5 Q 443.9 203.8 425.7 205.2 Q 407.4 206.7 387.3 207.2 Q 367.3 207.8 346.2 207.3 Q 325.1 206.8 303.8 205.2 L 282.6 203.6" fill="none" stroke="#ffb020" stroke-width="1.4" opacity="0.30" stroke-linecap="round">
      <animate attributeName="opacity" values="0.20;0.40;0.20" dur="8s" begin="2s" repeatCount="indefinite"/>
    </path>
    <path d="M 282.6 203.6 Q 282.6 203.6 262.0 200.9 Q 241.5 198.1 222.6 194.3 Q 203.8 190.4 187.6 185.5 Q 171.4 180.6 158.6 174.8 Q 145.9 169.0 137.5 162.4 Q 129.2 155.9 125.7 148.7 Q 122.3 141.6 124.4 134.2 L 126.5 126.8" fill="none" stroke="#ffb020" stroke-width="1.1" opacity="0.20" stroke-linecap="round">
      <animate attributeName="opacity" values="0.10;0.30;0.10" dur="8s" begin="2s" repeatCount="indefinite"/>
    </path>

  <!-- 7. Arm particles -->
    <circle r="1.5" fill="#00d4ff" opacity="0.6">
      <animateMotion dur="12s" begin="0s" repeatCount="indefinite" path="M 425.0 155.0 Q 425.0 155.0 429.6 155.8 Q 434.3 156.7 437.5 157.9 Q 440.8 159.2 442.3 160.7 Q 443.8 162.2 443.2 163.9 Q 442.6 165.6 439.8 167.4 Q 437.1 169.1 432.0 170.7 Q 427.0 172.3 419.9 173.6 Q 412.7 174.9 403.7 175.8 Q 394.7 176.8 384.3 177.1 Q 373.8 177.5 362.5 177.2 Q 351.1 176.9 339.3 175.9 Q 327.6 174.9 316.2 173.2 Q 304.9 171.4 294.5 169.0 Q 284.2 166.5 275.6 163.3 Q 267.0 160.1 260.8 156.3 Q 254.6 152.5 251.4 148.3 Q 248.2 144.0 248.5 139.4 Q 248.8 134.8 252.9 130.0 Q 257.1 125.3 265.2 120.6 Q 273.4 115.9 285.6 111.6 Q 297.8 107.2 313.9 103.3 Q 330.0 99.4 349.7 96.3 Q 369.3 93.2 391.9 91.0 Q 414.4 88.8 439.3 87.6 Q 464.1 86.5 490.4 86.7 Q 516.6 86.8 543.3 88.2 Q 570.0 89.7 596.0 92.5 Q 622.1 95.3 646.4 99.4 Q 670.7 103.6 692.1 109.0 L 713.6 114.5"/>
      <animate attributeName="opacity" values="0;0.7;0.3;0" dur="12s" begin="0s" repeatCount="indefinite"/>
    </circle>
    <circle r="1.5" fill="#00d4ff" opacity="0.6">
      <animateMotion dur="12s" begin="6s" repeatCount="indefinite" path="M 425.0 155.0 Q 425.0 155.0 429.6 155.8 Q 434.3 156.7 437.5 157.9 Q 440.8 159.2 442.3 160.7 Q 443.8 162.2 443.2 163.9 Q 442.6 165.6 439.8 167.4 Q 437.1 169.1 432.0 170.7 Q 427.0 172.3 419.9 173.6 Q 412.7 174.9 403.7 175.8 Q 394.7 176.8 384.3 177.1 Q 373.8 177.5 362.5 177.2 Q 351.1 176.9 339.3 175.9 Q 327.6 174.9 316.2 173.2 Q 304.9 171.4 294.5 169.0 Q 284.2 166.5 275.6 163.3 Q 267.0 160.1 260.8 156.3 Q 254.6 152.5 251.4 148.3 Q 248.2 144.0 248.5 139.4 Q 248.8 134.8 252.9 130.0 Q 257.1 125.3 265.2 120.6 Q 273.4 115.9 285.6 111.6 Q 297.8 107.2 313.9 103.3 Q 330.0 99.4 349.7 96.3 Q 369.3 93.2 391.9 91.0 Q 414.4 88.8 439.3 87.6 Q 464.1 86.5 490.4 86.7 Q 516.6 86.8 543.3 88.2 Q 570.0 89.7 596.0 92.5 Q 622.1 95.3 646.4 99.4 Q 670.7 103.6 692.1 109.0 L 713.6 114.5"/>
      <animate attributeName="opacity" values="0;0.7;0.3;0" dur="12s" begin="6s" repeatCount="indefinite"/>
    </circle>
    <circle r="1.5" fill="#a78bfa" opacity="0.6">
      <animateMotion dur="12s" begin="4s" repeatCount="indefinite" path="M 425.0 155.0 Q 425.0 155.0 419.6 155.5 Q 414.3 156.0 408.4 155.9 Q 402.5 155.9 396.7 155.3 Q 390.9 154.8 385.7 153.7 Q 380.5 152.6 376.5 151.0 Q 372.5 149.4 370.2 147.5 Q 367.9 145.5 367.8 143.3 Q 367.6 141.0 369.8 138.6 Q 372.0 136.2 376.8 133.9 Q 381.7 131.5 389.1 129.3 Q 396.5 127.1 406.5 125.2 Q 416.4 123.4 428.6 122.0 Q 440.7 120.6 454.7 119.9 Q 468.7 119.2 483.9 119.2 Q 499.1 119.3 514.9 120.2 Q 530.7 121.1 546.4 122.8 Q 562.0 124.6 576.8 127.3 Q 591.5 130.0 604.4 133.6 Q 617.4 137.2 627.8 141.6 Q 638.2 145.9 645.4 151.0 Q 652.5 156.0 655.8 161.6 Q 659.1 167.2 658.0 173.0 Q 656.9 178.9 651.1 184.9 Q 645.3 190.8 634.6 196.6 Q 623.9 202.4 608.5 207.8 Q 593.0 213.2 573.1 217.9 Q 553.1 222.6 529.1 226.4 Q 505.1 230.1 477.7 232.8 Q 450.3 235.5 420.4 236.8 L 390.5 238.1"/>
      <animate attributeName="opacity" values="0;0.7;0.3;0" dur="12s" begin="4s" repeatCount="indefinite"/>
    </circle>
    <circle r="1.5" fill="#a78bfa" opacity="0.6">
      <animateMotion dur="12s" begin="10s" repeatCount="indefinite" path="M 425.0 155.0 Q 425.0 155.0 419.6 155.5 Q 414.3 156.0 408.4 155.9 Q 402.5 155.9 396.7 155.3 Q 390.9 154.8 385.7 153.7 Q 380.5 152.6 376.5 151.0 Q 372.5 149.4 370.2 147.5 Q 367.9 145.5 367.8 143.3 Q 367.6 141.0 369.8 138.6 Q 372.0 136.2 376.8 133.9 Q 381.7 131.5 389.1 129.3 Q 396.5 127.1 406.5 125.2 Q 416.4 123.4 428.6 122.0 Q 440.7 120.6 454.7 119.9 Q 468.7 119.2 483.9 119.2 Q 499.1 119.3 514.9 120.2 Q 530.7 121.1 546.4 122.8 Q 562.0 124.6 576.8 127.3 Q 591.5 130.0 604.4 133.6 Q 617.4 137.2 627.8 141.6 Q 638.2 145.9 645.4 151.0 Q 652.5 156.0 655.8 161.6 Q 659.1 167.2 658.0 173.0 Q 656.9 178.9 651.1 184.9 Q 645.3 190.8 634.6 196.6 Q 623.9 202.4 608.5 207.8 Q 593.0 213.2 573.1 217.9 Q 553.1 222.6 529.1 226.4 Q 505.1 230.1 477.7 232.8 Q 450.3 235.5 420.4 236.8 L 390.5 238.1"/>
      <animate attributeName="opacity" values="0;0.7;0.3;0" dur="12s" begin="10s" repeatCount="indefinite"/>
    </circle>
    <circle r="1.5" fill="#ffb020" opacity="0.6">
      <animateMotion dur="12s" begin="8s" repeatCount="indefinite" path="M 425.0 155.0 Q 425.0 155.0 425.6 153.6 Q 426.1 152.1 428.7 150.8 Q 431.3 149.5 435.8 148.4 Q 440.3 147.3 446.4 146.5 Q 452.5 145.8 459.8 145.6 Q 467.1 145.3 475.1 145.6 Q 483.1 145.9 491.2 146.8 Q 499.3 147.7 506.9 149.2 Q 514.5 150.8 520.9 152.9 Q 527.4 155.0 532.1 157.6 Q 536.9 160.3 539.3 163.3 Q 541.8 166.4 541.5 169.8 Q 541.3 173.1 538.0 176.6 Q 534.6 180.2 528.1 183.6 Q 521.5 187.1 511.6 190.4 Q 501.8 193.6 488.7 196.5 Q 475.7 199.3 459.8 201.5 Q 443.9 203.8 425.7 205.2 Q 407.4 206.7 387.3 207.2 Q 367.3 207.8 346.2 207.3 Q 325.1 206.8 303.8 205.2 Q 282.6 203.6 262.0 200.9 Q 241.5 198.1 222.6 194.3 Q 203.8 190.4 187.6 185.5 Q 171.4 180.6 158.6 174.8 Q 145.9 169.0 137.5 162.4 Q 129.2 155.9 125.7 148.7 Q 122.3 141.6 124.4 134.2 Q 126.5 126.8 134.3 119.4 L 142.1 111.9"/>
      <animate attributeName="opacity" values="0;0.7;0.3;0" dur="12s" begin="8s" repeatCount="indefinite"/>
    </circle>
    <circle r="1.5" fill="#ffb020" opacity="0.6">
      <animateMotion dur="12s" begin="14s" repeatCount="indefinite" path="M 425.0 155.0 Q 425.0 155.0 425.6 153.6 Q 426.1 152.1 428.7 150.8 Q 431.3 149.5 435.8 148.4 Q 440.3 147.3 446.4 146.5 Q 452.5 145.8 459.8 145.6 Q 467.1 145.3 475.1 145.6 Q 483.1 145.9 491.2 146.8 Q 499.3 147.7 506.9 149.2 Q 514.5 150.8 520.9 152.9 Q 527.4 155.0 532.1 157.6 Q 536.9 160.3 539.3 163.3 Q 541.8 166.4 541.5 169.8 Q 541.3 173.1 538.0 176.6 Q 534.6 180.2 528.1 183.6 Q 521.5 187.1 511.6 190.4 Q 501.8 193.6 488.7 196.5 Q 475.7 199.3 459.8 201.5 Q 443.9 203.8 425.7 205.2 Q 407.4 206.7 387.3 207.2 Q 367.3 207.8 346.2 207.3 Q 325.1 206.8 303.8 205.2 Q 282.6 203.6 262.0 200.9 Q 241.5 198.1 222.6 194.3 Q 203.8 190.4 187.6 185.5 Q 171.4 180.6 158.6 174.8 Q 145.9 169.0 137.5 162.4 Q 129.2 155.9 125.7 148.7 Q 122.3 141.6 124.4 134.2 Q 126.5 126.8 134.3 119.4 L 142.1 111.9"/>
      <animate attributeName="opacity" values="0;0.7;0.3;0" dur="12s" begin="14s" repeatCount="indefinite"/>
    </circle>

  <!-- 8. Tech dots + leader lines + labels -->


  <!-- 9. Project stars -->
    <circle cx="464.1" cy="86.5" r="4" fill="#00d4ff" filter="url(#star-glow-0)">
      <animate attributeName="opacity" values="0.6;1;0.6" dur="4s" begin="0.0s" repeatCount="indefinite"/>
    </circle>
    <circle cx="623.9" cy="202.4" r="4" fill="#a78bfa" filter="url(#star-glow-1)">
      <animate attributeName="opacity" values="0.6;1;0.6" dur="4s" begin="0.8s" repeatCount="indefinite"/>
    </circle>
    <circle cx="171.4" cy="180.6" r="4" fill="#ffb020" filter="url(#star-glow-2)">
      <animate attributeName="opacity" values="0.6;1;0.6" dur="4s" begin="1.6s" repeatCount="indefinite"/>
    </circle>

  <!-- 10. Orbital rings -->
    <ellipse cx="425" cy="155" rx="55" ry="18" fill="none" stroke="#00d4ff" stroke-width="0.6" opacity="0.15" stroke-dasharray="4 6">
      <animateTransform attributeName="transform" type="rotate" from="0 425 155" to="360 425 155" dur="20s" repeatCount="indefinite"/>
    </ellipse>
    <ellipse cx="425" cy="155" rx="75" ry="24" fill="none" stroke="#a78bfa" stroke-width="0.5" opacity="0.1" stroke-dasharray="3 8">
      <animateTransform attributeName="transform" type="rotate" from="360 425 155" to="0 425 155" dur="30s" repeatCount="indefinite"/>
    </ellipse>

  <!-- 11. Galaxy core -->
    <!-- Outer haze -->
    <circle cx="425" cy="155" r="40" fill="url(#core-haze-gradient)" opacity="0.4"/>
    <!-- Inner glow -->
    <circle cx="425" cy="155" r="24" fill="url(#core-inner-gradient)" opacity="0.6"/>
    <!-- Outer ring -->
    <ellipse cx="425" cy="155" rx="20" ry="18" fill="none" stroke="#00d4ff" stroke-width="1.2" opacity="0.55" stroke-dasharray="5 3" class="core-ring"/>
    <!-- Inner ring -->
    <circle cx="425" cy="155" r="14" fill="none" stroke="#a78bfa" stroke-width="0.8" opacity="0.4" class="core-ring-inner"/>
    <!-- Solid core -->
    <circle cx="425" cy="155" r="11" fill="#0f1623" stroke="#1a2332" stroke-width="0.5"/>
    <!-- Bright center dot -->
    <circle cx="425" cy="155" r="3" fill="#00d4ff" filter="url(#core-bright-glow)" opacity="0.9"/>
    <!-- Initial -->
    <text x="425" y="160" text-anchor="middle" fill="#00d4ff" font-size="14" font-weight="bold" font-family="monospace">J</text>

  <!-- 12. Profile text -->
  <text x="425" y="26" text-anchor="middle" fill="#f1f5f9" font-size="20" font-weight="bold" font-family="sans-serif">João Victor Póvoa França</text>
  <text x="425" y="44" text-anchor="middle" fill="#94a3b8" font-size="12" font-family="sans-serif">Fullstack Tech Lead &amp; Partner 🚀</text>
  <text x="425" y="268" text-anchor="middle" fill="#64748b" font-size="11" font-family="monospace" font-style="italic"></text>
</svg>